<svg xmlns="http://www.w3.org/2000/svg" xmlns:svg="http://www.w3.org/2000/svg" xmlns:xlink="http://www.w3.org/1999/xlink" id="svg2" width="210mm" height="297mm"><metadata id="metadata7"/><defs id="defs5"><radialGradient id="radialGradient2824" cx="347.114" cy="442.337" r="6.841" fx="347.114" fy="442.337" gradientTransform="matrix(0.911789,-0.324736,0.260797,0.732254,-309.4907,-72.62595)" gradientUnits="userSpaceOnUse" xlink:href="#linearGradient2810"/><linearGradient id="linearGradient2810"><stop style="stop-color:#a8a8a8;stop-opacity:1" id="stop2812" offset="0"/><stop style="stop-color:black;stop-opacity:1" id="stop2814" offset="1"/></linearGradient><radialGradient id="radialGradient2816" cx="294.381" cy="440.787" r="8.081" fx="294.381" fy="440.787" gradientTransform="matrix(0.690052,0.413242,-0.312279,0.521458,2.130499,-214.3514)" gradientUnits="userSpaceOnUse" xlink:href="#linearGradient2810"/><radialGradient id="radialGradient5620" cx="214.024" cy="782.677" r="248.643" fx="214.024" fy="782.677" gradientTransform="matrix(1.840292e-2,-1.373116e-2,9.569006e-2,0.128247,-6.959401,133.0646)" gradientUnits="userSpaceOnUse" xlink:href="#linearGradient5595"/><radialGradient id="radialGradient5623" cx="339.03" cy="801.91" r="248.643" fx="339.03" fy="801.91" gradientTransform="matrix(1.959423e-2,1.694608e-2,-5.852097e-2,6.7666e-2,148.0988,167.782)" gradientUnits="userSpaceOnUse" xlink:href="#linearGradient5595"/><radialGradient id="radialGradient5626" cx="50.227" cy="783.507" r="248.643" fx="50.227" fy="783.507" gradientTransform="matrix(8.068033e-3,2.047773e-2,-8.036082e-2,3.166142e-2,99.2921,170.5264)" gradientUnits="userSpaceOnUse" xlink:href="#linearGradient5595"/><radialGradient id="radialGradient5629" cx="483.137" cy="703.498" r="248.643" fx="483.137" fy="703.498" gradientTransform="matrix(3.287654e-2,-1.486191e-2,4.479556e-2,9.909373e-2,128.9036,136.4242)" gradientUnits="userSpaceOnUse" xlink:href="#linearGradient5595"/><radialGradient id="radialGradient5632" cx="276.133" cy="711.468" r="248.643" fx="276.133" fy="711.468" gradientTransform="matrix(1.971699e-2,1.646033e-2,-1.594245e-2,1.909665e-2,101.873,183.9995)" gradientUnits="userSpaceOnUse" xlink:href="#linearGradient5595"/><radialGradient id="radialGradient5635" cx="435.115" cy="400.422" r="248.643" fx="435.115" fy="400.422" gradientTransform="matrix(2.652505e-2,-7.110847e-3,1.636313e-2,6.103814e-2,132.1098,60.12205)" gradientUnits="userSpaceOnUse" xlink:href="#linearGradient5595"/><linearGradient id="linearGradient5595"><stop style="stop-color:#e6bfd0;stop-opacity:1" id="stop5597" offset="0"/><stop style="stop-color:#d393b0;stop-opacity:1" id="stop5599" offset="1"/></linearGradient><radialGradient id="radialGradient5638" cx="145.298" cy="384.402" r="248.643" fx="145.298" fy="384.402" gradientTransform="matrix(2.750435e-2,7.757946e-3,-1.877008e-2,6.654582e-2,48.4244,45.11875)" gradientUnits="userSpaceOnUse" xlink:href="#linearGradient5595"/><radialGradient id="radialGradient2808" cx="319.878" cy="441.155" r="54.01" fx="319.878" fy="441.155" gradientTransform="matrix(1,0,0,1.517725,-225.3116,-532.5044)" gradientUnits="userSpaceOnUse" xlink:href="#linearGradient2785"/><linearGradient id="linearGradient2785"><stop style="stop-color:#b09ebd;stop-opacity:1" id="stop2787" offset="0"/><stop style="stop-color:#8e76a1;stop-opacity:1" id="stop2789" offset="1"/></linearGradient><radialGradient id="radialGradient2791" cx="359.566" cy="422.706" r="94.49" fx="359.566" fy="422.706" gradientTransform="matrix(1,0,0,1.200791,-225.3116,-387.9517)" gradientUnits="userSpaceOnUse" xlink:href="#linearGradient2785"/><radialGradient id="radialGradient5867" cx="348.204" cy="525.479" r="90.526" fx="348.204" fy="525.479" gradientTransform="matrix(0.930776,8.389418e-2,-2.28881e-2,0.219119,36.1314,381.1239)" gradientUnits="userSpaceOnUse" xlink:href="#linearGradient5951"/><linearGradient id="linearGradient5951"><stop style="stop-color:#323232;stop-opacity:1" id="stop5953" offset="0"/><stop style="stop-color:#1d006f;stop-opacity:0" id="stop5955" offset="1"/></linearGradient><radialGradient id="radialGradient5949" cx="330.147" cy="520.599" r="104.541" fx="330.147" fy="520.599" gradientTransform="matrix(1.050921,0.103889,-3.826374e-2,0.44313,-216.2109,-47.07175)" gradientUnits="userSpaceOnUse" xlink:href="#linearGradient5951"/></defs><rect style="font-size:12;fill:#ededed;fill-opacity:1;fill-rule:evenodd;stroke:#3e5ea2;stroke-width:3.8430586;stroke-opacity:.41666701" id="rect169" width="464.112" height="388.97" x="105.736" y="257.938" rx="8.077" ry="9.296"/><text style="font-size:92.221657;font-style:normal;font-weight:700;fill:#000;fill-opacity:1;stroke:none;stroke-width:1.2614599;stroke-linecap:butt;stroke-linejoin:miter;stroke-opacity:1;font-family:Helvetica;text-anchor:start;writing-mode:lr-tb" id="text137" x="129.606" y="548.131" transform="scale(0.863692,1.157820)"><tspan id="tspan167" x="129.606" y="548.131">monotone</tspan></text><g id="g1943" transform="translate(224.82153,303.62777)"><path id="path5941" d="M 13.018429,177.95014 C 13.018429,177.95014 48.840579,161.45971 93.854539,164.11611 C 138.86852,166.77249 184.74649,176.36905 204.84875,185.09604 C 224.95105,193.82297 208.1433,205.60638 206.1534,217.66547 C 202.22045,241.49966 165.69244,226.94028 149.39344,233.04857 C 133.09443,239.15687 142.10453,254.6879 109.41739,259.27406 C 76.730219,263.86025 58.269519,256.08491 43.244159,228.67999 C 32.009679,208.1893 20.888859,233.48052 5.2842891,213.73811 C -10.320281,193.99572 13.668609,178.77273 13.018429,177.95014 z" style="opacity:.5;fill:url(#radialGradient5949);fill-opacity:1;fill-rule:evenodd;stroke:none;stroke-width:1px;stroke-linecap:butt;stroke-linejoin:miter;stroke-opacity:1"/><path id="path5851" d="M 438.73062,525.47858 A 90.526337,23.055395 0 1 1 257.67795,525.47858 A 90.526337,23.055395 0 1 1 438.73062,525.47858 z" transform="matrix(1.006255,0,-0.269625,1.929497,-109.5153,-821.2068)" style="opacity:1;fill:url(#radialGradient5867);fill-opacity:1;stroke:none;stroke-width:7;stroke-linecap:round;stroke-linejoin:round;stroke-miterlimit:4;stroke-dasharray:none;stroke-dashoffset:0;stroke-opacity:1"/><path id="path1298" d="M 113.65848,224.84504 C 119.80232,224.01895 139.57871,205.29801 142.37451,202.4023 C 145.27174,199.40153 159.72377,180.99858 169.09637,180.79077 C 178.26955,180.58297 183.45438,182.661 186.64505,178.29714 C 189.47678,174.42419 199.51269,161.64787 201.80073,157.93243 C 204.42021,153.67878 207.33531,147.536 208.58091,137.15211 C 209.7774,127.17756 210.9739,112.42353 208.97974,105.15042 C 207.03819,98.069224 198.61006,80.629644 191.82989,69.823884 C 184.92786,58.823904 166.30453,32.003704 154.73836,21.197944 C 143.39155,10.597144 128.32155,0.10788411 112.63406,0.19864411 C 96.949439,0.28937411 83.387209,5.3840141 75.427139,11.609464 C 67.719819,17.637234 36.683579,57.355694 29.504569,72.317524 C 22.244039,87.449254 21.144989,111.38384 21.527899,121.35907 C 21.926729,131.74923 22.307759,147.98065 25.117409,157.51682 C 27.814939,166.67246 45.754099,202.2151 49.047429,208.22079 C 52.238089,214.03928 57.880329,224.27747 61.012439,225.67625 C 63.804269,226.92308 70.443439,227.0196 73.634109,226.18838 C 76.450969,225.45455 78.420109,222.12884 78.162289,220.27338 C 77.884449,218.27388 59.815939,190.76532 58.220599,187.44047 C 56.537919,183.93359 127.21883,182.45319 127.21883,186.19366 C 127.21883,189.51851 106.25713,215.07155 103.68765,218.19535 C 101.29463,221.10459 107.47656,225.67625 113.65848,224.84504 z" style="fill:url(#radialGradient2791);fill-opacity:1;fill-rule:evenodd;stroke:#000;stroke-width:.3961187px;stroke-linecap:butt;stroke-linejoin:miter;stroke-opacity:1"/><path id="path1302" d="M 44.660249,110.1377 C 41.270169,125.72293 38.278919,149.6203 43.862589,160.42606 C 49.446269,171.23182 59.018259,185.77804 66.596109,195.33699 C 74.173949,204.89594 75.370449,213.62367 84.543619,216.11731 C 93.716789,218.61095 97.705139,220.68898 104.4853,216.11731 C 111.26549,211.54564 115.61711,204.26677 119.07695,199.07746 C 122.26762,194.29186 125.57531,187.17005 128.48376,182.09667 C 131.25501,177.2626 140.68841,166.85833 143.10376,163.43616 C 145.70204,159.75478 148.65908,130.68679 148.35701,125.09953 C 148.02328,118.92628 148.35701,114.29376 145.56518,106.39724 C 142.77334,98.500724 130.33278,80.822684 124.42699,73.564344 C 118.26413,65.990024 110.13397,55.034204 92.919139,55.277664 C 76.550349,55.521114 60.214769,72.317514 56.226429,79.382834 C 52.238089,86.448144 48.050339,94.552464 44.660249,110.1377 z" style="fill:url(#radialGradient2808);fill-opacity:1;fill-rule:evenodd;stroke:#000;stroke-width:.3961187px;stroke-linecap:butt;stroke-linejoin:miter;stroke-opacity:1"/><path style="fill:url(#radialGradient5638);fill-opacity:1;fill-rule:evenodd;stroke:#000;stroke-width:.39611846px;stroke-linecap:butt;stroke-linejoin:miter;stroke-opacity:1" id="path1304" d="M 33.093909,53.615154 C 30.741729,56.458284 26.866159,69.076394 27.111409,75.642284 C 27.345039,81.897264 28.990749,88.826624 30.700909,91.435314 C 32.316279,93.899424 36.284569,100.99426 40.272909,100.99426 C 44.261239,100.99426 47.513499,107.45371 48.414779,107.64396 C 49.329259,107.83699 49.297599,101.04689 51.605449,96.279984 C 53.853289,91.637004 56.625079,85.536874 59.815749,82.291984 C 62.865229,79.190664 64.009369,72.875654 62.889599,71.708794 C 61.620959,70.386794 52.189519,57.527764 50.642579,52.439644 C 49.119189,47.429024 44.070669,48.029684 41.469409,48.627884 C 38.822739,49.236514 35.321699,50.922364 33.093909,53.615154 z"/><path style="fill:url(#radialGradient5635);fill-opacity:1;fill-rule:evenodd;stroke:#000;stroke-width:.39611846px;stroke-linecap:butt;stroke-linejoin:miter;stroke-opacity:1" id="path1306" d="M 149.75268,60.472654 C 146.97056,60.927904 140.77893,66.498944 138.38593,71.901824 C 136.10346,77.055154 126.62034,79.798344 125.82267,82.291984 C 125.08456,84.599444 135.66549,98.330024 137.18943,99.124034 C 138.78476,99.955244 142.07513,107.33223 141.57659,109.92979 C 141.08423,112.49517 148.133,108.91541 150.35093,107.64396 C 152.47935,106.42381 157.92877,103.07229 161.51827,96.838204 C 165.19612,90.450654 167.10193,80.421754 166.30426,73.979854 C 165.52351,67.674584 161.5383,63.220194 158.32759,61.755134 C 154.87868,60.181374 152.67233,59.994904 149.75268,60.472654 z"/><path style="fill:url(#radialGradient5632);fill-opacity:1;fill-rule:evenodd;stroke:#000;stroke-width:.39611846px;stroke-linecap:butt;stroke-linejoin:miter;stroke-opacity:1" id="path1308" d="M 95.912599,193.45186 C 90.554259,193.15798 86.565929,192.41897 85.574709,196.47419 C 84.564069,200.60892 88.382439,209.66051 89.341159,210.54214 C 90.153469,211.28914 101.43473,211.21341 102.25729,210.39953 C 103.21601,209.45091 107.46632,199.29124 106.36244,196.01681 C 105.25856,192.74238 101.5522,193.76117 95.912599,193.45186 z"/><path style="fill:url(#radialGradient5629);fill-opacity:1;fill-rule:evenodd;stroke:#000;stroke-width:.39611846px;stroke-linecap:butt;stroke-linejoin:miter;stroke-opacity:1" id="path1314" d="M 169.49493,179.95943 C 167.40314,180.18888 163.01547,181.70652 161.71768,183.28428 C 160.52118,184.7389 166.21774,198.69928 162.11651,201.77876 C 158.24096,204.68879 152.40427,210.61686 154.33926,211.96111 C 156.13401,213.20793 159.64678,214.01826 162.63803,211.10901 C 165.73059,208.10124 167.14201,207.40167 168.73735,209.0641 C 170.33268,210.72652 168.85609,216.14169 173.78532,215.71022 C 178.43447,215.30326 176.95337,210.38933 178.6598,209.45882 C 180.1409,208.65118 183.79817,218.49438 187.79288,218.36735 C 189.64935,218.30831 192.09489,213.58755 190.74342,211.87379 C 188.6008,209.15681 188.83677,207.96856 190.08911,208.1407 C 191.06372,208.27466 196.2732,217.85153 198.47291,218.31335 C 200.40093,218.71813 201.98568,211.88115 200.0316,210.39088 C 198.98333,209.59141 192.16201,204.02512 194.38145,204.66165 C 196.01731,205.13082 203.42103,212.3557 205.79707,212.68789 C 207.8958,212.98132 208.21697,211.95884 205.79887,208.62737 C 203.53353,205.50637 185.4424,195.6012 180.52541,193.14322 C 175.76989,190.76596 179.46577,179.54383 179.46577,179.54383 C 179.46577,179.54383 171.38939,179.75163 169.49493,179.95943 z"/><path style="fill:url(#radialGradient5626);fill-opacity:1;fill-rule:evenodd;stroke:#000;stroke-width:.39611846px;stroke-linecap:butt;stroke-linejoin:miter;stroke-opacity:1" id="path1316" d="M 37.859869,188.07852 C 33.820599,188.57732 19.932409,193.25883 16.741739,197.41489 C 13.551069,201.57095 14.465549,205.43314 20.049219,204.18632 C 22.841049,203.56291 19.220339,200.11398 22.670829,200.13726 C 23.401539,200.14219 22.506819,203.32434 24.315049,204.10601 C 25.879909,204.78248 31.275929,205.15184 31.285849,203.33068 C 31.295779,201.21565 34.932079,199.45914 36.800229,200.30325 C 38.908269,201.25576 37.252909,204.70381 39.648739,204.45931 C 42.323759,204.18631 41.791509,199.08955 44.047649,198.99736 C 46.332259,198.904 41.922499,187.57684 37.859869,188.07852 z"/><path id="path2070" d="M 116.84892,223.80589 C 116.35038,225.46831 113.54016,226.36153 114.65534,226.50732 C 115.77926,226.65426 120.96825,227.01333 121.63492,229.00096 C 122.36143,231.16698 124.47005,237.65158 123.03084,238.1443 C 121.63907,238.62077 119.0667,238.5347 118.46845,236.66447 C 117.8702,234.79424 116.80054,232.47707 116.20643,231.585 C 115.6764,230.78912 111.59501,226.95927 111.37205,227.1916 C 111.09003,227.48548 115.65111,231.22327 116.45009,232.94922 C 117.33035,234.85078 117.50558,237.42437 117.24776,238.76771 C 116.96276,240.2526 116.071,242.71597 115.05417,242.71596 C 114.05709,242.71596 111.29947,240.36927 111.06584,239.59892 C 110.79139,238.69399 112.06292,235.02725 110.86642,233.36483 C 109.66992,231.7024 107.47634,231.7024 107.47634,231.7024 C 107.47634,231.7024 106.13083,234.0384 105.68159,235.05246 C 105.15312,236.24535 104.29984,243.66891 99.991129,243.57239 C 95.823419,243.47587 98.055939,239.7325 98.502589,238.5599 C 99.018239,237.20613 100.78751,231.85046 100.57935,230.87119 C 100.37993,229.93302 100.80461,230.37211 100.51093,229.3557 C 99.720559,230.17931 98.643589,232.76663 96.250589,234.63686 C 93.857589,236.50709 88.510129,240.54964 87.855049,240.63794 C 87.061529,240.74489 85.466199,241.31788 84.561739,240.70924 C 84.043269,240.36035 84.801829,234.99528 85.486249,234.01345 C 86.216069,232.96647 89.649799,230.24345 91.522999,229.20877 C 93.507139,228.1128 101.17372,220.69594 103.18595,219.92893 C 105.14884,219.18074 117.34746,222.14346 116.84892,223.80589 z" style="fill:url(#radialGradient5623);fill-opacity:1;fill-rule:evenodd;stroke:#000;stroke-width:.39611846px;stroke-linecap:butt;stroke-linejoin:miter;stroke-opacity:1"/><path id="path2072" d="M 59.609869,225.37846 C 59.609869,225.37846 61.019959,227.14173 59.609869,229.05193 C 58.199779,230.96214 56.225649,232.43153 57.212719,236.8397 C 58.199779,241.24787 59.045829,241.98256 60.878949,241.54175 C 62.712059,241.10093 63.558119,239.92542 63.417109,237.5744 C 63.276099,235.22337 63.276099,231.10908 63.981139,232.28459 C 64.686189,233.46011 66.660309,235.37031 66.942329,239.04379 C 67.224349,242.71726 69.198469,246.09686 72.441679,245.94992 C 75.684889,245.80298 74.697819,243.30501 74.133779,241.24787 C 73.569749,239.19072 71.595629,234.92949 72.159659,234.1948 C 72.723699,233.46011 75.402869,237.72133 77.094969,240.07236 C 78.787079,242.42338 80.479189,245.06828 83.581379,244.92134 C 86.683579,244.77441 88.093669,243.74583 86.119539,240.2193 C 84.145419,236.69276 82.453309,236.10501 80.056159,233.31316 C 77.659009,230.52132 81.748269,234.34174 83.863399,235.81113 C 85.978529,237.28052 90.490819,239.77848 93.169989,239.04379 C 95.849159,238.30909 97.400249,236.39888 94.016039,233.46011 C 90.631829,230.52132 88.939719,230.08051 84.145419,228.46418 C 79.351119,226.84785 79.492119,225.37846 78.082039,223.17437 C 76.671949,220.97029 60.878949,223.02744 59.609869,225.37846 z" style="fill:url(#radialGradient5620);fill-opacity:1;fill-rule:evenodd;stroke:#000;stroke-width:.39611846px;stroke-linecap:butt;stroke-linejoin:miter;stroke-opacity:1"/><path id="path1310" d="M 65.758349,126.64023 C 67.127889,126.94013 71.154729,129.32661 71.382109,134.65847 C 71.615749,140.13699 74.665409,138.86063 71.732559,141.0856 C 68.706809,143.38105 64.378229,142.77627 62.349939,142.01333 C 60.321659,141.25038 58.458379,139.46927 57.612329,137.51729 C 56.740769,135.50649 57.471559,130.64785 58.784639,129.25559 C 60.166379,127.79052 64.253499,126.31069 65.758349,126.64023 z" style="fill:url(#radialGradient2816);fill-opacity:1;fill-rule:evenodd;stroke:#000;stroke-width:.3961187px;stroke-linecap:butt;stroke-linejoin:miter;stroke-opacity:1"/><path id="path1312" d="M 121.93428,128.63218 C 120.3166,129.52462 117.4474,136.4248 117.84624,139.33404 C 118.24507,142.24328 120.8375,144.42521 124.22758,144.32131 C 127.51795,144.21741 128.66625,141.7941 129.213,140.99647 C 129.71154,140.26916 131.50629,137.77552 131.00774,134.03506 C 130.52066,130.38053 128.60523,128.97522 126.91971,128.21657 C 125.29804,127.48668 123.62934,127.69707 121.93428,128.63218 z" style="fill:url(#radialGradient2824);fill-opacity:1;fill-rule:evenodd;stroke:#000;stroke-width:.3961187px;stroke-linecap:butt;stroke-linejoin:miter;stroke-opacity:1"/><path style="fill:none;fill-opacity:.75;fill-rule:evenodd;stroke:#000;stroke-width:.3961187px;stroke-linecap:butt;stroke-linejoin:miter;stroke-opacity:1" id="path2058" d="M 150.2945,193.56149 C 156.277,188.15862 167.44988,163.695 168.9429,159.4573 C 170.51356,154.99926 173.26165,141.80522 176.04175,126.29741"/><g id="g2074" transform="matrix(0.388043,0,0,0.404362,-11.1766,-84.73625)" style="fill:#c9b0d7;fill-opacity:1;stroke:none;stroke-opacity:1"><path style="fill-rule:evenodd;stroke-width:1px;stroke-linecap:butt;stroke-linejoin:miter" id="path2060" d="M 176.30394,524.90389 C 171.84003,522.27646 186.90445,506.14144 199.38422,501.32484 C 210.97458,496.85151 221.14311,494.05562 228.60109,497.06752 C 235.64965,499.91409 225.04915,539.82223 221.96573,546.81028 C 219.14472,553.20362 221.45182,545.92856 208.63449,526.60682 C 195.81715,507.28508 180.39049,527.3092 176.30394,524.90389 z"/><path style="fill-rule:evenodd;stroke-width:1px;stroke-linecap:butt;stroke-linejoin:miter" id="path2062" d="M 251.88796,687.52391 C 258.55358,683.41268 296.9297,685.43941 304.39171,687.70025 C 312.07934,690.02945 342.71276,620.48478 340.12811,617.75404 C 337.38277,614.85353 302.33002,653.27217 297.87218,657.27923 C 292.93973,661.7129 263.30967,661.32996 255.99919,656.75021 C 248.19134,651.85887 208.353,617.64395 203.49545,620.66112 C 199.82946,622.93818 244.72432,691.94231 251.88796,687.52391 z"/><path style="fill-rule:evenodd;stroke-width:1px;stroke-linecap:butt;stroke-linejoin:miter" id="path2064" d="M 327.00347,501.32484 C 322.96643,508.6676 324.38857,545.78248 328.4998,545.25344 C 332.85998,544.69237 330.55541,521.82047 345.0908,521.82047 C 359.62619,521.82047 370.19838,537.61825 369.19889,533.44879 C 368.17108,529.16121 365.4706,522.52585 353.84229,507.99046 C 342.21398,493.45507 331.46739,493.20568 327.00347,501.32484 z"/></g><path style="fill:none;fill-opacity:.75;fill-rule:evenodd;stroke:#000;stroke-width:.3961187px;stroke-linecap:butt;stroke-linejoin:miter;stroke-opacity:1" id="path2066" d="M 47.235479,82.136104 C 49.987239,76.229004 51.299099,66.965834 50.950099,64.446884 C 50.595909,61.890414 49.689999,51.394114 45.115559,50.246194 C 40.817439,49.167604 35.337209,53.793804 33.310509,56.975664"/><path style="fill:none;fill-opacity:.75;fill-rule:evenodd;stroke:#000;stroke-width:.3961187px;stroke-linecap:butt;stroke-linejoin:miter;stroke-opacity:1" id="path2068" d="M 146.26314,93.097844 C 144.06956,91.435414 141.68897,82.916324 141.87598,79.798434 C 142.07538,76.473594 141.72442,71.649544 144.06956,67.953654 C 146.3709,64.326784 149.34702,62.282114 151.84681,62.135174 C 154.34264,61.988464 156.11717,62.697714 157.59569,64.213194"/></g></svg>